<svg xmlns="http://www.w3.org/2000/svg" fill="#F48B29" height="48" width="48"><path d="M10.8 30.15H15.8Q16.8 30.15 17.55 29.4Q18.3 28.65 18.3 27.65V20.35Q18.3 19.35 17.55 18.6Q16.8 17.85 15.8 17.85H10.8ZM21.6 30.15H26.7V27.65H22.6V25.05H25.2V22.9H22.6V20.35H26.7V17.85H21.6Q21 17.85 20.55 18.3Q20.1 18.75 20.1 19.35V28.65Q20.1 29.25 20.55 29.7Q21 30.15 21.6 30.15ZM33.1 30.1Q33.8 30.1 34.325 29.775Q34.85 29.45 35.1 28.6L38.4 17.85H35.8L33.15 26.35L30.5 17.85H27.9L31.2 28.6Q31.45 29.3 31.925 29.7Q32.4 30.1 33.1 30.1ZM13.3 27.65V20.35H15.8Q15.8 20.35 15.8 20.35Q15.8 20.35 15.8 20.35V27.65Q15.8 27.65 15.8 27.65Q15.8 27.65 15.8 27.65ZM9 42Q7.8 42 6.9 41.1Q6 40.2 6 39V9Q6 7.8 6.9 6.9Q7.8 6 9 6H39Q40.2 6 41.1 6.9Q42 7.8 42 9V39Q42 40.2 41.1 41.1Q40.2 42 39 42ZM9 39H39Q39 39 39 39Q39 39 39 39V9Q39 9 39 9Q39 9 39 9H9Q9 9 9 9Q9 9 9 9V39Q9 39 9 39Q9 39 9 39ZM9 39Q9 39 9 39Q9 39 9 39V9Q9 9 9 9Q9 9 9 9Q9 9 9 9Q9 9 9 9V39Q9 39 9 39Q9 39 9 39Z"/></svg>