<svg xmlns="http://www.w3.org/2000/svg" viewBox="0 0 48 48"><path fill="#0c0c0c" d="M24 0C10.767 0 0 10.767 0 24s10.767 24 24 24 24-10.767 24-24S37.233 0 24 0zm0 47C11.318 47 1 36.682 1 24S11.318 1 24 1s23 10.318 23 23-10.318 23-23 23z"/><path fill="#0c0c0c" d="M17.544 17.653l.286 1.046c.011.042.048.066.069.102v.555c0 .586.245 1.115.636 1.495v.519l-1.392.522a1.779 1.779 0 0 0-1.148 1.658V25a.5.5 0 0 0 1 0v-1.45c0-.319.201-.609.5-.721l.534-.2a2.71 2.71 0 0 0 1.959.858c.752 0 1.452-.325 1.962-.863l.545.204c.299.112.5.402.5.721V25a.5.5 0 0 0 1 0v-1.45c0-.733-.461-1.4-1.148-1.658l-1.407-.528v-.514c.39-.379.634-.908.634-1.494v-.52a.508.508 0 0 0 .068-.164l.297-1.379c.062-.336-.013-.676-.21-.956s-.491-.465-.829-.521l-1.81-.302a1.249 1.249 0 0 0-1.394.843 1.122 1.122 0 0 0-.436.329 1.138 1.138 0 0 0-.216.967zm3.53 1.703c0 .397-.224.73-.543.92-.058.034-.114.07-.176.093a1.113 1.113 0 0 1-.272.055 1.058 1.058 0 0 1-.195 0 1.088 1.088 0 0 1-.27-.055c-.061-.022-.117-.058-.174-.092a1.073 1.073 0 0 1-.545-.921v-.289h2.175v.289zm-1.955 2.864l.092-.035a.5.5 0 0 0 .324-.468v-.323l.01.001c.143.031.29.049.442.049h.001l.014-.001c.147-.001.29-.018.429-.048l.01-.001v.324c0 .219.142.399.338.467l.002.001.083.031a1.867 1.867 0 0 1-1.745.003zm-.579-4.905a.115.115 0 0 1 .094-.045c.276 0 .5-.244.5-.52 0-.102.056-.164.089-.192a.243.243 0 0 1 .205-.057l1.81.302c.096.016.15.076.174.11a.26.26 0 0 1 .048.186l-.209.968h-2.556l-.179-.651a.116.116 0 0 1 .024-.101z"/><path fill="#0c0c0c" d="M35.5 11.5H29V11a.5.5 0 0 0-.5-.5H26c0-1.103-.897-2-2-2s-2 .897-2 2h-2.5a.5.5 0 0 0-.5.5v.5h-6.5a.5.5 0 0 0-.5.5v27a.5.5 0 0 0 .5.5h23a.5.5 0 0 0 .5-.5V12a.5.5 0 0 0-.5-.5zm-12.908 0a.501.501 0 0 0 .471-.667A1.004 1.004 0 0 1 23 10.5c0-.551.449-1 1-1s1 .449 1 1c0 .104-.021.213-.063.333a.501.501 0 0 0 .471.667H28v2h-8v-1.498V12v-.5h2.592zM35 38.5H13v-26h6V14a.5.5 0 0 0 .5.5h9a.5.5 0 0 0 .5-.5v-1.5h6v26z"/><path fill="#0c0c0c" d="M30.5 14.5H33v22H15v-22h2.5a.5.5 0 0 0 0-1h-3a.5.5 0 0 0-.5.5v23a.5.5 0 0 0 .5.5h19a.5.5 0 0 0 .5-.5V14a.5.5 0 0 0-.5-.5h-3a.5.5 0 0 0 0 1z"/><path fill="#0c0c0c" d="M25.5 19.5h6a.5.5 0 0 0 .5-.5v-2a.5.5 0 0 0-.5-.5h-6a.5.5 0 0 0-.5.5v2a.5.5 0 0 0 .5.5zm.5-2h5v1h-5v-1zM32 27a.5.5 0 0 0-.5-.5h-15a.5.5 0 0 0-.5.5v2a.5.5 0 0 0 .5.5h15a.5.5 0 0 0 .5-.5v-2zm-1 1.5H17v-1h14v1zM31.5 20.5h-3a.5.5 0 0 0 0 1h3a.5.5 0 0 0 0-1zM25.5 21.5h1a.5.5 0 0 0 0-1h-1a.5.5 0 0 0 0 1zM28.5 30.5h-10a.5.5 0 0 0 0 1h10a.5.5 0 0 0 0-1zM16.85 30.649a.503.503 0 0 0-.7 0A.473.473 0 0 0 16 31c0 .069.01.13.04.189.02.061.06.12.11.16.04.05.1.09.16.11.06.03.12.04.19.04s.13-.01.19-.04a.372.372 0 0 0 .16-.11c.05-.04.09-.1.11-.16.03-.059.04-.12.04-.189 0-.13-.05-.26-.15-.351zM28.5 32.5h-10a.5.5 0 0 0 0 1h10a.5.5 0 0 0 0-1zM16.85 32.649a.503.503 0 0 0-.7 0A.473.473 0 0 0 16 33c0 .14.05.26.15.35.09.101.22.15.35.15.07 0 .13-.01.19-.04a.372.372 0 0 0 .16-.11c.05-.04.09-.1.11-.16.03-.06.04-.121.04-.19 0-.13-.05-.26-.15-.351zM28.5 34.5h-10a.5.5 0 0 0 0 1h10a.5.5 0 0 0 0-1zM31.5 30.5h-1a.5.5 0 0 0 0 1h1a.5.5 0 0 0 0-1zM31.5 32.5h-1a.5.5 0 0 0 0 1h1a.5.5 0 0 0 0-1zM31.5 34.5h-1a.5.5 0 0 0 0 1h1a.5.5 0 0 0 0-1zM16.31 34.54c-.06.02-.12.06-.16.109-.1.091-.15.221-.15.351s.05.26.15.35c.09.101.22.15.35.15.13 0 .26-.05.35-.15.1-.09.15-.22.15-.35s-.05-.26-.15-.351a.479.479 0 0 0-.54-.109zM25.5 23.5h6a.5.5 0 0 0 0-1h-6a.5.5 0 0 0 0 1zM25.5 25.5h4a.5.5 0 0 0 0-1h-4a.5.5 0 0 0 0 1z"/></svg>